<?xml version="1.0" standalone="no"?>
<!DOCTYPE svg PUBLIC "-//W3C//DTD SVG 1.1//EN" "http://www.w3.org/Graphics/SVG/1.1/DTD/svg11.dtd" >
<svg xmlns="http://www.w3.org/2000/svg" xmlns:xlink="http://www.w3.org/1999/xlink" version="1.1">
<metadata></metadata>
<defs>
<font id="saira_semicondensedregular" horiz-adv-x="1083" >
<font-face units-per-em="2048" ascent="1638" descent="-410" />
<missing-glyph horiz-adv-x="434" />
<glyph unicode="&#xfb01;" horiz-adv-x="1134" d="M47 909v135h182v168q0 141 37 207t114 84.5t236 18.5v-123q-100 0 -147 -11.5t-65.5 -44t-18.5 -102.5v-197h231v-135h-231v-909h-156v909h-182zM820 1343v179h165v-179h-165zM824 0v1044h155v-1044h-155z" />
<glyph unicode="&#xfb02;" horiz-adv-x="1134" d="M47 909v135h182v168q0 141 37 207t114 84.5t236 18.5v-123q-100 0 -147 -11.5t-65.5 -44t-18.5 -102.5v-197h231v-135h-231v-909h-156v909h-182zM824 0v1522h155v-1522h-155z" />
<glyph horiz-adv-x="0" />
<glyph unicode="&#xd;" horiz-adv-x="434" />
<glyph horiz-adv-x="0" />
<glyph horiz-adv-x="0" />
<glyph unicode=" "  horiz-adv-x="434" />
<glyph unicode="&#x09;" horiz-adv-x="434" />
<glyph unicode="&#xa0;" horiz-adv-x="434" />
<glyph unicode="!" horiz-adv-x="466" d="M145 1200v209h185v-209q0 -98 -23 -522l-12 -281h-115l-12 281q-23 424 -23 522zM147 0v193h181v-193h-181z" />
<glyph unicode="&#x22;" horiz-adv-x="657" d="M117 1253v156h151v-156l-22 -344h-107zM387 1253v156h154v-156l-23 -344h-108z" />
<glyph unicode="#" horiz-adv-x="1382" d="M117 393v121h192l74 367h-201v120h224l79 408h123l-80 -408h306l79 408h123l-80 -408h179v-120h-203l-72 -367h211v-121h-233l-76 -393h-125l78 393h-305l-76 -393h-123l76 393h-170zM434 514h303l72 367h-303z" />
<glyph unicode="$" horiz-adv-x="980" d="M125 950q0 166 73.5 234.5t235.5 81.5v159h123v-157q156 -6 246 -29v-133q-84 14 -246 22v-350l88 -10q82 -10 126 -38t64.5 -90t20.5 -179t-29.5 -183.5t-93 -97t-176.5 -39.5v-157h-123v155q-186 8 -280 27v135q154 -20 280 -22v364l-86 12q-90 10 -138 43t-66.5 92.5 t-18.5 159.5zM283 958q0 -70 9 -101.5t31.5 -42.5t73.5 -17l37 -4v333q-80 -6 -115.5 -41.5t-35.5 -126.5zM557 283q82 8 110.5 46t28.5 126q0 76 -9 109.5t-31.5 43.5t-73.5 17l-25 4v-346z" />
<glyph unicode="%" horiz-adv-x="1517" d="M109 1030q0 174 16 252t69.5 110.5t174.5 32.5t174 -32.5t68.5 -110.5t15.5 -252q0 -176 -15.5 -253t-69 -108.5t-173.5 -31.5q-121 0 -174.5 31.5t-69.5 109.5t-16 252zM223 1030q0 -150 9.5 -207t36 -72.5t100.5 -15.5q71 0 98 15.5t36 73t9 206.5q0 154 -8 209 t-35 70.5t-100 15.5q-74 0 -100.5 -15.5t-36 -72.5t-9.5 -207zM293 0l813 1409h119l-813 -1409h-119zM891 377q0 174 16.5 252t69.5 110.5t174 32.5t174 -32.5t68.5 -110.5t15.5 -252q0 -176 -15.5 -253t-68.5 -108.5t-174 -31.5t-174 31.5t-69.5 109.5t-16.5 252zM1008 377 q0 -152 8 -208t34.5 -71.5t100.5 -15.5t100.5 15.5t34.5 71.5t8 208q0 154 -7 209t-33.5 70.5t-102.5 15.5q-74 0 -100.5 -15.5t-34.5 -72t-8 -207.5z" />
<glyph unicode="&#x26;" horiz-adv-x="1306" d="M123 377q0 162 54 234.5t171 103.5v8q-111 31 -163 106.5t-52 225.5q0 123 43 202.5t155.5 123.5t315.5 44q84 0 193.5 -10t193.5 -26v-129q-80 12 -176 20t-162 8q-178 0 -264 -23.5t-113.5 -76.5t-27.5 -156q0 -78 16.5 -130t70.5 -86t163 -34h159v-139h-159 q-113 0 -169.5 -28.5t-73.5 -83t-17 -150.5q0 -111 38.5 -167t115.5 -75.5t218 -19.5q133 0 232 16v647h362v-139h-207v-623q-63 -14 -176.5 -25t-216.5 -11q-217 0 -330.5 45t-153.5 128t-40 220z" />
<glyph unicode="'" horiz-adv-x="385" d="M117 1253v156h151v-156l-22 -344h-107z" />
<glyph unicode="(" horiz-adv-x="571" d="M145 608q0 264 25 415t77 251t165 248h123q-98 -143 -141.5 -231.5t-69 -245t-25.5 -437.5t25.5 -438.5t68.5 -245.5t142 -231h-123q-113 151 -165 250.5t-77 249t-25 415.5z" />
<glyph unicode=")" horiz-adv-x="571" d="M37 -307q98 143 141 231t67.5 246t24.5 438q0 281 -24.5 437.5t-67.5 244.5t-141 232h123q111 -145 163 -246.5t76.5 -252.5t24.5 -415q0 -266 -24.5 -415.5t-76 -249t-163.5 -250.5h-123z" />
<glyph unicode="*" horiz-adv-x="868" d="M96 1182l56 98l241 -160l-14 289h110l-16 -289l244 160l53 -98l-256 -131l258 -129l-55 -99l-244 158l16 -287h-110l14 287l-241 -158l-54 99l256 129z" />
<glyph unicode="+" horiz-adv-x="1048" d="M135 453v131h322v323h131v-323h325v-131h-325v-326h-131v326h-322z" />
<glyph unicode="," horiz-adv-x="425" d="M82 -168q70 0 90.5 25.5t20.5 107.5v35h-72v193h182v-166q0 -117 -16.5 -172.5t-62.5 -78t-142 -22.5v78z" />
<glyph unicode="-" horiz-adv-x="684" d="M119 512v145h446v-145h-446z" />
<glyph unicode="." horiz-adv-x="425" d="M123 0v193h180v-193h-180z" />
<glyph unicode="/" horiz-adv-x="667" d="M12 -113l496 1635h145l-497 -1635h-144z" />
<glyph unicode="0" horiz-adv-x="1189" d="M135 705q0 338 24.5 475t117 191t317.5 54q227 0 320.5 -54t117 -191.5t23.5 -474.5q0 -338 -24.5 -475.5t-118 -191.5t-318.5 -54t-317.5 54t-117 191.5t-24.5 475.5zM297 705q0 -301 16.5 -409t70.5 -137.5t210 -29.5t210 29.5t70.5 137t16.5 409.5q0 301 -16.5 408.5 t-70.5 137t-210 29.5t-210 -29.5t-70.5 -137t-16.5 -408.5z" />
<glyph unicode="1" horiz-adv-x="675" d="M70 1092v153l295 164h118v-1409h-166v1214z" />
<glyph unicode="2" horiz-adv-x="1081" d="M121 0v164q0 178 10 257t52 129t143 99l194 94l131 64q88 41 116 90t28 152q0 102 -26 150t-85 64.5t-182 16.5q-154 0 -357 -25v138q76 14 190 23t212 9q137 0 222 -23.5t137 -101t52 -233.5q0 -119 -21.5 -189.5t-66.5 -114.5t-129 -85l-362 -172q-61 -31 -78 -74 q-12 -29 -15 -68.5t-3 -119.5v-99h675v-145h-837z" />
<glyph unicode="3" horiz-adv-x="1058" d="M92 16v136q221 -23 350 -23q119 0 185.5 17.5t101.5 71.5t35 163q0 145 -53.5 202.5t-182.5 57.5h-229v145h229q104 0 163 51.5t59 194.5q0 109 -32 162t-97.5 69.5t-194.5 16.5q-70 0 -162 -7t-164 -18v136q74 14 176.5 24t186.5 10q170 0 268 -37.5t141 -118.5t43 -214 q0 -150 -53 -228.5t-160 -103.5v-8q113 -23 170.5 -98.5t57.5 -239.5q0 -135 -38 -219t-140.5 -129t-290.5 -45q-82 0 -185.5 9t-183.5 23z" />
<glyph unicode="4" horiz-adv-x="1142" d="M80 330v129l461 950h176l-459 -934h463l33 508h129v-508h178v-145h-178v-330h-164v330h-639z" />
<glyph unicode="5" horiz-adv-x="1093" d="M141 16v136q221 -23 348 -23q135 0 203 25.5t93.5 86t25.5 175.5q0 125 -27.5 181t-97.5 75.5t-221 19.5q-129 0 -311 -26v743h735v-145h-582v-445q119 18 262 19q170 0 258 -44t119 -129t31 -229q0 -172 -39 -268t-138.5 -140t-289.5 -44q-82 0 -186.5 9t-182.5 23z" />
<glyph unicode="6" horiz-adv-x="1165" d="M135 690q0 182 8.5 295t32.5 186q43 143 147.5 198.5t311.5 55.5q72 0 172 -9t186 -25v-138q-176 27 -325 27q-170 0 -245 -40t-99.5 -148.5t-24.5 -352.5h12q35 45 109 74t227 29q160 0 245 -28t126 -113t41 -255q0 -188 -35 -284t-128 -137t-282 -41q-141 0 -225 17 t-137 68.5t-82 151.5q-20 61 -27.5 172t-7.5 297zM305 463q0 -152 25.5 -221.5t85 -91t184.5 -21.5q131 0 190.5 17.5t83 75t23.5 186.5q0 139 -22.5 197.5t-80 74.5t-194.5 16q-133 0 -195.5 -21.5t-81 -68.5t-18.5 -143z" />
<glyph unicode="7" horiz-adv-x="999" d="M68 1264v145h850v-129l-502 -1280h-180l503 1264h-671z" />
<glyph unicode="8" horiz-adv-x="1208" d="M129 377q0 117 24.5 184.5t71.5 100t127 53.5v8q-111 23 -162 101.5t-51 230.5q0 133 42 213t142.5 118.5t280.5 38.5q178 0 279.5 -38.5t143.5 -118.5t42 -213q0 -152 -51 -231t-164 -101v-8q80 -20 128 -53t72.5 -100.5t24.5 -184.5q0 -141 -37.5 -224t-141 -126 t-296.5 -43q-194 0 -296.5 43t-140.5 126t-38 224zM295 381q0 -109 27.5 -163t91 -72.5t190.5 -18.5t190.5 18.5t91 72.5t27.5 163q0 117 -25.5 170t-88 71.5t-195.5 18.5t-195.5 -18.5t-88 -71.5t-25.5 -170zM305 1032q0 -102 24.5 -154.5t87 -73t187.5 -20.5t187.5 20.5 t87 73t24.5 154.5q0 104 -23.5 156.5t-86 73t-189.5 20.5t-189.5 -20.5t-86 -72.5t-23.5 -157z" />
<glyph unicode="9" horiz-adv-x="1165" d="M106 963q0 188 35 284t128 137t282 41q141 0 225 -17t138.5 -64.5t80.5 -141.5q20 -72 27.5 -185.5t7.5 -297.5q0 -193 -10 -312.5t-39 -197.5q-47 -127 -150.5 -176t-300.5 -49q-73 0 -174.5 10t-183.5 24v138q78 -12 169 -19.5t157 -7.5q170 0 244.5 40t99 148.5 t24.5 352.5h-12q-35 -45 -108.5 -74t-227.5 -29q-160 0 -245 28t-126 113t-41 255zM268 1001q0 -139 22.5 -197.5t80 -74.5t194.5 -16q135 0 196.5 21.5t80 67.5t18.5 144q0 152 -25.5 221.5t-85 91t-184.5 21.5q-131 0 -189.5 -17.5t-83 -75t-24.5 -186.5z" />
<glyph unicode=":" horiz-adv-x="425" d="M123 0v193h180v-193h-180zM123 852v192h180v-192h-180z" />
<glyph unicode=";" horiz-adv-x="425" d="M82 -168q70 0 90.5 25.5t20.5 107.5v35h-72v193h182v-166q0 -117 -16.5 -172.5t-62.5 -78t-142 -22.5v78zM123 852v192h180v-192h-180z" />
<glyph unicode="&#x3c;" horiz-adv-x="1048" d="M135 440v154l780 330v-140l-641 -266l641 -268v-137z" />
<glyph unicode="=" horiz-adv-x="1048" d="M135 256v133h778v-133h-778zM135 647v131h778v-131h-778z" />
<glyph unicode="&#x3e;" horiz-adv-x="1048" d="M135 113v137l639 268l-639 266v140l778 -330v-154z" />
<glyph unicode="?" horiz-adv-x="894" d="M63 1257v138q76 14 171.5 22t168.5 8q201 0 284 -79.5t83 -268.5q0 -145 -31.5 -226t-126.5 -122l-53 -18q-74 -31 -102.5 -50.5t-36.5 -45t-8 -83.5v-135h-148v170q0 76 14.5 117t41 62.5t83.5 46.5l56 22q66 29 95.5 52.5t40.5 66.5t11 129q0 94 -22.5 140t-75.5 61.5 t-160 15.5q-104 0 -285 -23zM248 0v193h180v-193h-180z" />
<glyph unicode="@" horiz-adv-x="1665" d="M150 602q0 403 33.5 557t168.5 210t479 56q346 0 481.5 -55t169.5 -208.5t34 -559.5q0 -215 -21.5 -308t-68 -116.5t-146.5 -23.5h-246l-8 122h-10q-31 -82 -96.5 -109.5t-157.5 -27.5q-139 0 -199.5 57.5t-60.5 204.5q0 102 20.5 158.5t72.5 82.5t146 26q98 0 279 -9v58 q0 106 -15.5 151t-59.5 57.5t-150 12.5q-51 0 -130 -5t-112 -11v114q141 25 287 25q139 0 206.5 -32t91 -102.5t23.5 -207.5v-479h139q51 0 75 17t35 93t11 252q0 307 -14 439.5t-68.5 197t-185.5 84.5q-109 16 -324 16q-190 0 -299 -14q-139 -16 -198.5 -78.5t-74.5 -197 t-15 -447.5q0 -330 18.5 -464t89 -192.5t244.5 -72.5q84 -6 237 -6q266 0 330 6v-90q-74 -4 -330 -4q-344 0 -479 56t-168.5 210t-33.5 557zM639 410q0 -66 12.5 -96.5t47 -43t108.5 -12.5q86 0 131 21.5t63.5 74t18.5 150.5v59h-242q-61 0 -88.5 -10t-39 -42t-11.5 -101z " />
<glyph unicode="A" horiz-adv-x="1214" d="M49 0l451 1409h215l450 -1409h-170l-125 385h-532l-123 -385h-166zM379 530h448l-217 699h-10z" />
<glyph unicode="B" horiz-adv-x="1210" d="M176 0v1409h547q186 0 267 -90t81 -262q0 -143 -52 -225t-169 -107v-8q135 -27 185 -114t50 -232q0 -172 -79.5 -271.5t-290.5 -99.5h-539zM340 143h344q135 0 185.5 55.5t50.5 192.5t-52.5 193.5t-183.5 56.5h-344v-498zM340 786h336q117 0 174 57.5t57 180.5 q0 90 -19.5 141.5t-69.5 75t-142 23.5h-336v-478z" />
<glyph unicode="C" horiz-adv-x="1005" d="M135 705q0 317 35 463.5t136.5 201.5t320.5 55q72 0 150.5 -8t127.5 -20v-135q-119 18 -239 18q-178 0 -250 -35t-94.5 -147.5t-22.5 -392.5q0 -281 22.5 -393.5t94 -147.5t250.5 -35q145 0 245 18v-137q-55 -12 -134 -19t-150 -7q-221 0 -321.5 54t-135.5 200.5 t-35 466.5z" />
<glyph unicode="D" horiz-adv-x="1222" d="M176 0v1409h393q252 0 356.5 -52t133 -188.5t28.5 -463.5q0 -328 -28.5 -464.5t-133 -188.5t-356.5 -52h-393zM340 145h211q193 0 261.5 28t90 134.5t21.5 397.5q0 289 -21.5 396t-91.5 135t-260 28h-211v-1119z" />
<glyph unicode="E" horiz-adv-x="1062" d="M176 0v1409h791v-145h-627v-480h545v-145h-545v-494h627v-145h-791z" />
<glyph unicode="F" horiz-adv-x="997" d="M176 0v1409h754v-145h-590v-510h526v-146h-526v-608h-164z" />
<glyph unicode="G" horiz-adv-x="1198" d="M135 705q0 311 41 460.5t148.5 204.5t332.5 55q96 0 206 -12t179 -29v-135q-74 12 -165 21.5t-146 9.5q-207 0 -288 -28.5t-112.5 -144.5t-31.5 -402q0 -266 23.5 -382t95 -157t237.5 -41q51 0 118 5t114 13v471h-269v142h429v-733q-86 -16 -197 -27.5t-197 -11.5 q-225 0 -331.5 53t-146.5 202.5t-40 465.5z" />
<glyph unicode="H" horiz-adv-x="1298" d="M176 0v1409h164v-623h618v623h164v-1409h-164v637h-618v-637h-164z" />
<glyph unicode="I" horiz-adv-x="520" d="M178 0v1409h164v-1409h-164z" />
<glyph unicode="J" horiz-adv-x="624" d="M51 0v139q133 4 179 22.5t57.5 84t11.5 256.5v907h164v-852q0 -289 -21.5 -392.5t-98.5 -133t-292 -31.5z" />
<glyph unicode="K" horiz-adv-x="1187" d="M176 0v1409h164v-621h213l405 621h179l-449 -684l453 -725h-185l-403 643h-213v-643h-164z" />
<glyph unicode="L" horiz-adv-x="944" d="M176 0v1409h164v-1259h557v-150h-721z" />
<glyph unicode="M" horiz-adv-x="1628" d="M176 0v1409h234l399 -1139h12l402 1139h229v-1409h-160v1141h-8l-403 -1141h-140l-401 1141h-8v-1141h-156z" />
<glyph unicode="N" horiz-adv-x="1298" d="M176 0v1409h168l612 -1061h9v1061h159v-1409h-159l-623 1081h-8v-1081h-158z" />
<glyph unicode="O" horiz-adv-x="1271" d="M135 705q0 334 27.5 473t130 193t344.5 54t343 -54t129 -193.5t28 -472.5q0 -334 -28 -473.5t-129 -193.5t-343 -54t-344.5 54t-130 193.5t-27.5 473.5zM299 705q0 -297 20.5 -408t83 -139.5t234.5 -28.5t233.5 28.5t82 139.5t20.5 408t-20.5 407.5t-82 139t-233.5 28.5 t-234.5 -28.5t-83 -139.5t-20.5 -407z" />
<glyph unicode="P" horiz-adv-x="1155" d="M176 0v1409h520q160 0 240 -55.5t104.5 -148.5t24.5 -240q0 -145 -24.5 -237.5t-105.5 -150t-241 -57.5h-354v-520h-164zM340 664h311q113 0 166 30.5t68.5 92t15.5 178.5q0 119 -14.5 178t-67.5 90t-166 31h-313v-600z" />
<glyph unicode="Q" horiz-adv-x="1271" d="M135 705q0 334 27.5 473t130 193t344.5 54t343 -54t129 -193.5t28 -472.5q0 -217 -9.5 -339t-40 -201t-96.5 -120l183 -274v-7h-181l-149 232q-86 -12 -207 -12q-242 0 -344.5 54t-130 193.5t-27.5 473.5zM299 705q0 -297 20.5 -408t83 -139.5t234.5 -28.5q86 0 119 2 l-203 315h170l178 -268q45 45 58.5 155.5t13.5 371.5q0 297 -20.5 407.5t-82 139t-233.5 28.5t-234.5 -28.5t-83 -139.5t-20.5 -407z" />
<glyph unicode="R" horiz-adv-x="1210" d="M176 0v1409h543q158 0 236.5 -53t102 -141.5t23.5 -229.5q0 -154 -36.5 -254t-155.5 -141l215 -590h-176l-197 561h-35h-356v-561h-164zM340 705h324q112 0 166.5 29.5t71 87t16.5 163.5q0 109 -14.5 164t-67 85t-160.5 30h-336v-559z" />
<glyph unicode="S" horiz-adv-x="1105" d="M113 1032q0 158 49 243t144 117.5t251 32.5q106 0 207.5 -9t167.5 -23v-136q-152 23 -338 23q-104 0 -165.5 -12.5t-94.5 -38.5q-35 -27 -46.5 -71t-11.5 -122q0 -90 10.5 -131t41 -58.5t100.5 -25.5l283 -37q111 -14 169 -43.5t87 -107.5q26 -64 26 -218v-12 q0 -174 -47 -265t-136 -122.5t-239 -31.5q-106 0 -222 7t-202 21v140q217 -23 375 -23q98 0 154.5 10.5t93.5 36.5q37 25 47 75t10 136q0 109 -10 152t-46 61t-128 31l-289 37q-104 14 -156.5 59t-68.5 116.5t-16 188.5z" />
<glyph unicode="T" horiz-adv-x="1026" d="M49 1260v149h926v-149h-381v-1260h-164v1260h-381z" />
<glyph unicode="U" horiz-adv-x="1261" d="M162 614v795h164v-866q0 -190 17 -270t78.5 -112t209.5 -32q147 0 208.5 32t78 111.5t16.5 270.5v866h164v-795q0 -274 -29 -400t-125 -178t-313 -52q-215 0 -312.5 52t-127 178t-29.5 400z" />
<glyph unicode="V" horiz-adv-x="1165" d="M45 1409h170l365 -1208h10l362 1208h168l-432 -1409h-213z" />
<glyph unicode="W" horiz-adv-x="1742" d="M57 1409h168l260 -1188h13l288 1188h183l291 -1188h12l254 1188h164l-322 -1409h-205l-284 1143h-11l-284 -1143h-203z" />
<glyph unicode="X" horiz-adv-x="1196" d="M49 0l447 709l-441 700h189l350 -563h14l350 563h185l-441 -696l445 -713h-189l-356 573h-14l-355 -573h-184z" />
<glyph unicode="Y" horiz-adv-x="1077" d="M16 1409h174l345 -688h14l342 688h170l-440 -872v-537h-166v537z" />
<glyph unicode="Z" horiz-adv-x="1062" d="M88 0v137l684 1127h-663v145h862v-135l-686 -1131h696v-143h-893z" />
<glyph unicode="[" horiz-adv-x="608" d="M176 -307v1829h359v-115l-211 -8v-1583l211 -9v-114h-359z" />
<glyph unicode="\" horiz-adv-x="667" d="M12 1522h146l495 -1635h-143z" />
<glyph unicode="]" horiz-adv-x="608" d="M74 -193l211 9v1583l-211 8v115h358v-1829h-358v114z" />
<glyph unicode="^" horiz-adv-x="888" d="M96 940l273 594h151l271 -594h-134l-213 481l-213 -481h-135z" />
<glyph unicode="_" horiz-adv-x="698" d="M0 -217h698v-131h-698v131z" />
<glyph unicode="`" horiz-adv-x="385" d="M27 1511v11h168l161 -279v-10h-116z" />
<glyph unicode="a" horiz-adv-x="1024" d="M94 289q0 119 25.5 185.5t88 96t175.5 29.5q57 0 334 -10v69q0 127 -20.5 181.5t-75 70t-183.5 15.5q-57 0 -144 -6.5t-140 -14.5v127q143 29 333 29q164 0 245 -36t110.5 -120t29.5 -246v-659h-139l-8 145h-10q-37 -98 -120 -129.5t-194 -31.5q-163 0 -235 66.5 t-72 238.5zM248 299q0 -78 16.5 -115t59.5 -51t133 -14q86 0 140 17.5t81 70.5q39 80 39 215v59h-293q-76 0 -112 -13t-50 -51t-14 -118z" />
<glyph unicode="b" horiz-adv-x="1071" d="M154 0v1522h155v-607h10q35 78 108 112t187 34q139 0 211 -47t100.5 -160t28.5 -332t-29.5 -332.5t-101 -159.5t-211.5 -46q-112 0 -189 33.5t-112 127.5h-10l-8 -145h-139zM309 522q0 -100 6.5 -165.5t22.5 -114.5q20 -61 72.5 -89t142.5 -28q115 0 163 25.5t65.5 105.5 t17.5 266t-17.5 265t-65.5 106t-163 27q-88 0 -140.5 -27t-72.5 -84q-18 -49 -24.5 -115.5t-6.5 -171.5z" />
<glyph unicode="c" horiz-adv-x="831" d="M115 522q0 213 28.5 324.5t108.5 163t237 51.5q63 0 133 -8.5t117 -18.5v-129q-102 20 -213 21q-115 0 -167 -31t-69.5 -113t-17.5 -260q0 -182 18.5 -263t71 -110.5t168.5 -29.5q111 0 218 20v-129q-50 -10 -120.5 -18t-131.5 -8q-172 0 -253 54t-104.5 162.5 t-23.5 321.5z" />
<glyph unicode="d" horiz-adv-x="1071" d="M115 520q0 219 28.5 333t100 161t211.5 47q115 0 187.5 -34t107.5 -112h10v607h155v-1522h-139l-6 145h-12q-35 -94 -112 -127.5t-187 -33.5q-140 0 -212.5 46t-102 158.5t-29.5 331.5zM272 522q0 -186 16.5 -266t65.5 -105.5t164 -25.5q90 0 142.5 27.5t72.5 89.5 q16 51 21.5 115.5t5.5 179.5q0 88 -4 144t-17 99q-20 74 -73.5 107t-151.5 33q-113 0 -161 -27t-64.5 -105.5t-16.5 -265.5z" />
<glyph unicode="e" horiz-adv-x="1015" d="M115 520q0 221 24.5 328.5t111.5 160t275 52.5q176 0 254 -50t98.5 -155.5t20.5 -333.5v-53h-627q0 -160 17.5 -229.5t78 -96t199.5 -26.5q131 0 297 22v-127q-55 -12 -148 -20t-181 -8q-188 0 -276.5 48t-116 156.5t-27.5 331.5zM272 586h478v20q0 145 -19.5 212 t-66 88.5t-142.5 21.5q-116 0 -166.5 -24.5t-67 -93.5t-16.5 -224z" />
<glyph unicode="f" horiz-adv-x="669" d="M47 909v135h182v168q0 141 37 207t114 84.5t236 18.5v-123q-100 0 -147 -11.5t-65.5 -44t-18.5 -102.5v-197h231v-135h-231v-909h-156v909h-182z" />
<glyph unicode="g" horiz-adv-x="1069" d="M115 522q0 219 29.5 333t102 160t212.5 46q109 0 186.5 -35t112.5 -129h10l8 147h139v-903q0 -223 -28.5 -336.5t-118.5 -167t-279 -53.5q-184 1 -323 19v127q160 -10 293 -11q139 0 200.5 30t81 105.5t19.5 243.5v37h-10q-33 -78 -105 -111.5t-186 -33.5q-141 0 -214 46 t-101.5 157.5t-28.5 328.5zM272 524q0 -184 16.5 -264t65.5 -105.5t164 -25.5q90 0 142.5 28.5t72.5 92.5q16 47 21.5 107.5t5.5 166.5q0 98 -4 157.5t-19 102.5q-23 72 -75 104t-144 32q-115 0 -164 -26t-65.5 -104.5t-16.5 -265.5z" />
<glyph unicode="h" d="M154 0v1522h155v-611h10q31 70 99.5 110t197.5 40q133 0 200 -41t90.5 -124t23.5 -234v-662h-156v602q0 150 -15.5 212.5t-59.5 83t-146 20.5q-113 0 -165 -42t-65.5 -118t-13.5 -215v-543h-155z" />
<glyph unicode="i" horiz-adv-x="464" d="M150 1343v179h165v-179h-165zM154 0v1044h155v-1044h-155z" />
<glyph unicode="j" horiz-adv-x="464" d="M-14 -279q78 0 112.5 10.5t45 33t10.5 69.5v1210h155v-1165q0 -131 -29.5 -189.5t-94 -75.5t-199.5 -17v124zM150 1343v179h165v-179h-165z" />
<glyph unicode="k" horiz-adv-x="972" d="M154 0v1522h155v-926h121l313 448h170l-356 -505l363 -539h-177l-313 459h-121v-459h-155z" />
<glyph unicode="l" horiz-adv-x="464" d="M154 0v1522h155v-1522h-155z" />
<glyph unicode="m" horiz-adv-x="1613" d="M154 0v1044h139l8 -147h10q29 78 94.5 121t190.5 43t186.5 -38t83.5 -126h13q29 78 97 121t193 43q123 0 184.5 -41t84 -125t22.5 -233v-662h-155v602q0 150 -13.5 212.5t-52.5 83t-131 20.5q-104 0 -151.5 -40t-59.5 -114t-12 -221v-543h-156v602q0 150 -13.5 212.5 t-52 83t-131.5 20.5q-102 0 -150 -42t-60.5 -117t-12.5 -216v-543h-155z" />
<glyph unicode="n" d="M154 0v1044h139l8 -147h10q31 80 101.5 122t203.5 42t200 -41t90.5 -125t23.5 -236v-659h-156v602q0 150 -15.5 212.5t-59.5 83t-146 20.5q-113 0 -165 -42t-65.5 -118t-13.5 -215v-543h-155z" />
<glyph unicode="o" horiz-adv-x="1044" d="M115 522q0 240 23.5 345.5t107.5 149.5t276 44q193 0 277 -44t107.5 -149.5t23.5 -345.5t-23.5 -345t-107.5 -149t-277 -44q-192 0 -276 44t-107.5 149.5t-23.5 344.5zM272 522q0 -201 12.5 -274.5t61.5 -101t176 -27.5t177.5 27.5t62.5 102.5t12 273q0 199 -12 273.5 t-62.5 102.5t-177.5 28t-176 -28t-61.5 -102.5t-12.5 -273.5z" />
<glyph unicode="p" horiz-adv-x="1071" d="M154 -401v1445h139l8 -147h10q35 96 113 130t188 34q139 0 211 -46t101.5 -159t29.5 -332t-28.5 -332.5t-100 -160.5t-211.5 -47q-117 0 -188.5 33.5t-103.5 113.5h-13v-532h-155zM309 522q0 -182 21 -254q23 -78 76 -110.5t147 -32.5q115 0 163 26.5t65.5 105.5 t17.5 265t-17.5 265t-65.5 106t-163 27q-92 0 -145.5 -30t-73.5 -97q-16 -47 -20.5 -108.5t-4.5 -162.5z" />
<glyph unicode="q" horiz-adv-x="1071" d="M115 522q0 219 29.5 333t102 160t212.5 46q111 0 187.5 -34t111.5 -130h12l6 147h139v-1445h-155v532h-10q-35 -80 -107 -113.5t-188 -33.5q-139 0 -211 46t-100.5 159.5t-28.5 332.5zM272 522q0 -186 16.5 -265t65.5 -105.5t164 -26.5q94 0 146.5 31.5t74.5 103.5 q12 43 16.5 102.5t4.5 159.5q0 106 -5 169t-24 114q-20 59 -71.5 87t-141.5 28q-115 0 -164 -27t-65.5 -105.5t-16.5 -265.5z" />
<glyph unicode="r" horiz-adv-x="669" d="M154 0v1044h139l8 -198h12q31 123 108 169t202 46v-158q-123 0 -192 -44t-95.5 -133t-26.5 -237v-489h-155z" />
<glyph unicode="s" horiz-adv-x="901" d="M96 756q0 127 43 193.5t121 89t205 22.5q70 0 151.5 -8.5t137.5 -20.5v-129q-121 23 -291 23q-80 0 -123 -10.5t-66.5 -45t-23.5 -106.5q0 -66 9 -95.5t31.5 -41t74.5 -17.5l235 -28q80 -8 122 -33t62.5 -84t20.5 -174q0 -123 -38 -189.5t-112.5 -92t-197.5 -25.5 q-76 0 -170 8t-162 18v129q162 -20 321 -20q90 0 133.5 16.5t57.5 51t14 100.5q0 72 -9 102.5t-32.5 40.5t-77.5 16l-237 31q-117 14 -158 74.5t-41 204.5z" />
<glyph unicode="t" horiz-adv-x="649" d="M47 909v135h182v304h156v-304h215v-135h-215v-909h-156v909h-182z" />
<glyph unicode="u" d="M152 385v659h155v-602q0 -147 16.5 -210.5t60.5 -84t146 -20.5q113 0 164 42t64.5 116.5t13.5 216.5v542h156v-1044h-140l-6 147h-12q-31 -80 -100.5 -121.5t-202.5 -41.5t-200.5 41t-91 124.5t-23.5 235.5z" />
<glyph unicode="v" horiz-adv-x="962" d="M47 1044h164l264 -866h14l265 866h159l-333 -1044h-197z" />
<glyph unicode="w" horiz-adv-x="1474" d="M55 1044h160l217 -843h12l218 843h155l219 -843h13l215 843h155l-286 -1044h-185l-205 776h-14l-203 -776h-186z" />
<glyph unicode="x" horiz-adv-x="985" d="M51 0l344 530l-332 514h177l249 -389h13l250 389h170l-332 -512l344 -532h-176l-262 408h-13l-264 -408h-168z" />
<glyph unicode="y" d="M152 406v638h155v-600q0 -147 16.5 -210.5t60.5 -84t146 -20.5q113 0 164 43t64.5 118t13.5 216v538h156v-909q0 -217 -30 -330.5t-119 -167t-273 -53.5q-155 1 -311 17v129q168 -10 278 -11q137 0 199.5 34t81 106.5t18.5 226.5v53h-10q-27 -70 -95.5 -109.5 t-201.5 -39.5q-135 0 -201.5 42t-89 128t-22.5 246z" />
<glyph unicode="z" horiz-adv-x="909" d="M90 0v123l531 786h-510v135h704v-122l-530 -787h534v-135h-729z" />
<glyph unicode="{" horiz-adv-x="606" d="M49 561v90q102 2 144.5 76t42.5 180v240q0 84 33.5 160.5t82.5 132t94 82.5h121q-74 -68 -129 -165t-55 -198v-246q0 -254 -180 -299v-14q180 -45 180 -301v-244q0 -102 54.5 -198.5t129.5 -163.5h-121q-45 26 -94 81.5t-82.5 132.5t-33.5 161v237q0 106 -42 180t-145 76 z" />
<glyph unicode="|" horiz-adv-x="516" d="M186 -330v1852h144v-1852h-144z" />
<glyph unicode="}" horiz-adv-x="606" d="M37 -307q74 69 129 165.5t55 196.5v244q0 256 180 301v14q-180 45 -180 299v246q0 100 -54 195.5t-130 167.5h121q45 -27 94 -82.5t83 -132t34 -160.5v-240q0 -109 41 -181.5t143 -74.5v-90q-102 -2 -143 -74.5t-41 -181.5v-237q0 -84 -34 -161t-83 -132.5t-94 -81.5 h-121z" />
<glyph unicode="~" horiz-adv-x="964" d="M131 494q0 88 10.5 135t41 70.5t96.5 23.5q49 0 94 -11.5t133 -37.5q12 -4 49 -15.5t65.5 -17.5t53.5 -6q41 0 52 22.5t11 87.5h94q0 -88 -10 -135t-40.5 -70.5t-96.5 -23.5q-51 0 -102.5 12.5t-122.5 36.5q-8 2 -46 14.5t-69 18.5t-55 6q-41 0 -52.5 -22.5t-11.5 -87.5 h-94z" />
<glyph unicode="&#xa1;" horiz-adv-x="458" d="M137 -156q0 63 19 469q4 74 9 183.5t5 150.5h117l12 -272q4 -80 12 -267.5t8 -263.5v-209h-182v209zM137 852v192h182v-192h-182z" />
<glyph unicode="&#xa2;" horiz-adv-x="860" d="M119 700q0 209 29.5 327t99 173t192.5 66v159h125v-159q104 -6 191 -27v-133q-90 16 -191 20v-847q109 4 199 22v-135q-96 -20 -199 -27v-155h-125v155q-135 10 -203.5 68.5t-93 172.5t-24.5 320zM283 702q0 -155 12 -238t46 -124t99 -53v831q-68 -12 -100.5 -52 t-44.5 -123t-12 -241z" />
<glyph unicode="&#xa3;" horiz-adv-x="1058" d="M96 0v145h133v512h-133v144h135v28q0 238 37 363t133.5 179t282.5 54q68 0 141.5 -8t120.5 -20v-137q-113 20 -219 20q-90 0 -146.5 -9t-93.5 -34q-55 -37 -73.5 -132t-18.5 -271v-33h420v-144h-420v-512h572v-145h-871z" />
<glyph unicode="&#xa4;" horiz-adv-x="1312" d="M115 1327l94 92l192 -192q78 39 252 39q180 0 256 -41l195 194l92 -92l-186 -186q31 -59 41 -157.5t10 -276.5q0 -182 -10.5 -280.5t-42.5 -158.5l188 -188l-92 -92l-197 196q-78 -39 -254 -39q-174 0 -250 39l-194 -196l-92 92l184 186q-33 57 -44 158.5t-11 282.5 q0 176 10 276t43 160zM403 707q0 -211 12.5 -290t61.5 -108.5t176 -29.5t177.5 29.5t62.5 109.5t12 289t-12 286.5t-62.5 107t-177.5 29.5t-176 -28.5t-61.5 -107.5t-12.5 -287z" />
<glyph unicode="&#xa5;" horiz-adv-x="1138" d="M66 1409h174l323 -704h15l325 704h168l-225 -471h168v-107h-219l-111 -219h330v-106h-365v-506h-164v506h-364v106h330l-111 219h-219v107h168z" />
<glyph unicode="&#xa6;" horiz-adv-x="516" d="M186 -330v723h144v-723h-144zM186 799v723h144v-723h-144z" />
<glyph unicode="&#xa7;" horiz-adv-x="1239" d="M109 567q0 143 40.5 229.5t153.5 102.5q-29 35 -39 84t-10 123q0 184 100.5 251.5t304.5 67.5q94 0 184.5 -8t133.5 -18v-137q-43 6 -124 12t-153 6q-111 0 -169 -12.5t-86.5 -48t-28.5 -109.5q0 -66 10 -98.5t36.5 -50t84.5 -35.5l311 -97q106 -35 160.5 -65.5t83 -90 t28.5 -165.5q0 -143 -41.5 -230.5t-154.5 -103.5q29 -37 39 -85t10 -122q0 -182 -100.5 -249.5t-304.5 -67.5q-95 0 -185 8t-133 18v138q45 -6 124 -12.5t153 -6.5q111 0 170 12.5t87.5 48t28.5 109.5q0 66 -10 98.5t-32.5 49t-73.5 32.5l-318 99q-111 33 -167 64.5 t-84.5 91t-28.5 167.5zM264 598q0 -96 21.5 -133t87.5 -57l385 -117q14 -4 47 -13.5t49 -9.5q55 0 88 51.5t33 155.5q0 94 -20.5 131t-75.5 53l-394 119q-76 25 -102 25q-55 0 -87 -50.5t-32 -154.5z" />
<glyph unicode="&#xa8;" horiz-adv-x="598" d="M39 1333v162h149v-162h-149zM412 1333v162h147v-162h-147z" />
<glyph unicode="&#xa9;" horiz-adv-x="1341" d="M158 705q0 350 25.5 485t128 185t358.5 50q258 0 359 -50t128 -185t27 -485q0 -352 -27 -487.5t-128 -184.5t-359 -49t-359.5 49t-127 184t-25.5 488zM240 705q0 -334 21.5 -454t102 -155t306.5 -35q225 0 307 35t103.5 155t21.5 454t-21.5 452.5t-103.5 154.5t-307 36 q-223 0 -305 -36t-103.5 -155t-21.5 -452zM446 702q0 170 18.5 249t74 110t174.5 31q102 0 151 -17v-88q-61 10 -131 10q-90 0 -125 -18t-46 -74.5t-11 -202.5q0 -145 11 -201.5t46 -74.5t125 -18q78 0 135 10v-90q-55 -12 -155 -13q-119 0 -174.5 30t-74 108.5t-18.5 248.5 z" />
<glyph unicode="&#xaa;" horiz-adv-x="755" d="M78 866q0 86 18.5 134.5t62.5 70t128 21.5l151 -5l84 -2v45q0 88 -13 126t-52 49.5t-133 11.5q-82 0 -205 -17v103q100 23 246 22q121 0 180 -26.5t79.5 -88t20.5 -180.5v-479h-113l-8 88h-10q-33 -57 -88 -77.5t-127 -20.5q-119 0 -170 49t-51 176zM197 874 q0 -78 27.5 -103.5t115.5 -25.5q66 0 105.5 15.5t56.5 56.5q20 43 20 139v43h-203q-51 0 -76.5 -9t-35.5 -35.5t-10 -80.5z" />
<glyph unicode="&#xab;" horiz-adv-x="866" d="M84 627l233 417h113l-199 -417l199 -416h-113zM393 627l234 417h114l-198 -417l198 -416h-114z" />
<glyph unicode="&#xac;" horiz-adv-x="1046" d="M135 453v133h776v-459h-131v326h-645z" />
<glyph unicode="&#xad;" horiz-adv-x="684" d="M119 512v145h446v-145h-446z" />
<glyph unicode="&#xae;" horiz-adv-x="1341" d="M158 705q0 350 25.5 485t128 185t358.5 50q258 0 359 -50t128 -185t27 -485q0 -352 -27 -487.5t-128 -184.5t-359 -49t-359.5 49t-127 184t-25.5 488zM240 705q0 -334 21.5 -454t102 -155t306.5 -35q225 0 306 35t103.5 155t22.5 454q0 332 -22.5 451.5t-103.5 155.5 t-306 36q-223 0 -305 -36t-103.5 -155t-21.5 -452zM434 324v757h289q88 0 133 -29.5t57.5 -76.5t12.5 -123q0 -82 -20.5 -137.5t-80.5 -77.5l115 -313h-113l-104 294h-25h-161v-294h-103zM537 711h151q60 0 88.5 15t35.5 43t7 83q0 53 -8 81t-33.5 41t-79.5 13h-161v-276z " />
<glyph unicode="&#xaf;" horiz-adv-x="686" d="M119 1376v144h446v-144h-446z" />
<glyph unicode="&#xb0;" horiz-adv-x="722" d="M115 1118q0 131 14 191.5t65.5 88t167.5 27.5q117 0 167.5 -27.5t64.5 -88t14 -191.5q0 -133 -13 -192.5t-64.5 -86t-168.5 -26.5q-116 0 -167.5 26.5t-65.5 86t-14 192.5zM227 1118q0 -102 6.5 -141t34 -55.5t94.5 -16.5q66 0 93.5 16.5t34 56.5t6.5 140t-6.5 140 t-34 56.5t-93.5 16.5q-68 0 -95 -16.5t-33.5 -55t-6.5 -141.5z" />
<glyph unicode="&#xb1;" horiz-adv-x="1048" d="M135 29v133h778v-133h-778zM135 711v133h322v323h131v-323h325v-133h-325v-324h-131v324h-322z" />
<glyph unicode="&#xb2;" horiz-adv-x="671" d="M100 649v103q0 88 5.5 129t23.5 67.5t64 48.5q55 31 188 95q45 20 59.5 44.5t14.5 75.5q0 66 -29 86.5t-113 20.5q-68 0 -202 -16v102q119 20 229 20q78 0 125 -12t76.5 -56t29.5 -134q0 -92 -26.5 -139.5t-91.5 -77.5l-115 -58l-72 -33q-33 -16 -43 -36.5t-10 -71.5v-49 h358v-109h-471z" />
<glyph unicode="&#xb3;" horiz-adv-x="661" d="M86 653v99q152 -14 201 -15q82 0 117.5 23.5t35.5 97.5q0 70 -24.5 97.5t-83.5 27.5h-135v100h135q47 0 73.5 25t26.5 92q0 74 -33.5 96.5t-122.5 22.5q-76 0 -186 -16v102q123 20 207 20q141 0 197.5 -48t56.5 -163q0 -68 -24.5 -109.5t-71.5 -64.5v-8q104 -39 104 -178 q0 -115 -55 -168t-207 -53q-98 0 -211 20z" />
<glyph unicode="&#xb4;" horiz-adv-x="385" d="M27 1233v10l161 279h168v-11l-211 -278h-118z" />
<glyph unicode="&#xb5;" horiz-adv-x="1085" d="M154 -387v1431h155v-602q0 -147 16.5 -210.5t60.5 -84t146 -20.5q113 0 164.5 42t64.5 116.5t13 216.5v542h156v-1044h-137l-9 147h-12q-31 -80 -100.5 -121.5t-202.5 -41.5q-96 0 -160 34v-405h-155z" />
<glyph unicode="&#xb6;" horiz-adv-x="1054" d="M106 930q0 227 24 319t106.5 126t285.5 34h127v-1704h-127v750q-205 0 -286.5 32.5t-105.5 123.5t-24 319zM768 -295v1704h125v-1704h-125z" />
<glyph unicode="&#xb7;" horiz-adv-x="425" d="M123 516v193h180v-193h-180z" />
<glyph unicode="&#xb8;" horiz-adv-x="309" d="M37 -379l129 395h106v-10l-82 -395h-153v10z" />
<glyph unicode="&#xb9;" horiz-adv-x="462" d="M80 1206v109l166 94h82v-760h-115v619z" />
<glyph unicode="&#xba;" horiz-adv-x="780" d="M92 1030q0 172 17.5 250t79 111.5t202.5 33.5q139 0 200.5 -33.5t79 -111.5t17.5 -250q0 -170 -17.5 -246.5t-79 -109.5t-200.5 -33q-141 0 -202.5 33t-79 109.5t-17.5 246.5zM217 1030q0 -139 8 -191.5t43 -71.5t123 -19t122 19t42 71.5t8 191.5q0 141 -8 193.5t-42 73 t-122 20.5t-123 -20.5t-43 -73t-8 -193.5z" />
<glyph unicode="&#xbb;" horiz-adv-x="866" d="M125 211l201 416l-201 417h115l233 -417l-233 -416h-115zM436 211l199 416l-199 417h115l231 -417l-231 -416h-115z" />
<glyph unicode="&#xbc;" horiz-adv-x="1296" d="M80 1206v109l166 94h84v-760h-117v619zM137 0l809 1409h121l-809 -1409h-121zM645 164v86l242 512h125l-240 -494h217l27 271h90v-271h92v-104h-92v-164h-117v164h-344z" />
<glyph unicode="&#xbd;" horiz-adv-x="1429" d="M80 1206v109l166 94h84v-760h-117v619zM137 0l809 1409h121l-809 -1409h-121zM831 0v100q0 88 5.5 130t25 69t64.5 49q80 43 188 92q45 23 59.5 46.5t14.5 74.5q0 68 -29 88.5t-112 20.5q-35 0 -203 -17v103q119 20 229 20q76 0 124 -13t78 -57t30 -135q0 -92 -27 -138 t-94 -79l-185 -90q-35 -16 -45 -38.5t-10 -69.5v-47h361v-109h-474z" />
<glyph unicode="&#xbe;" horiz-adv-x="1456" d="M100 653v99q152 -15 201 -15q82 0 118 23.5t36 97.5q0 70 -24.5 97.5t-84.5 27.5h-137v100h137q47 0 73.5 25t26.5 92q0 74 -33.5 96.5t-121.5 22.5q-76 0 -187 -16v102q123 20 207 20q141 0 197.5 -48t56.5 -163q0 -68 -24.5 -109.5t-71.5 -64.5v-8q104 -39 104 -178 q0 -115 -55 -168t-209 -53q-100 0 -209 20zM301 0l809 1409h121l-809 -1409h-121zM805 164v86l242 512h124l-239 -494h217l27 271h90v-271h92v-104h-92v-164h-119v164h-342z" />
<glyph unicode="&#xbf;" horiz-adv-x="790" d="M113 -33q0 145 33.5 227t125.5 121l86 35q55 23 78 39.5t29 41t6 81.5v135h150v-170q0 -76 -14.5 -117t-42 -62.5t-83.5 -45.5l-49 -21q-68 -27 -98.5 -51t-42.5 -68t-12 -130q0 -94 22.5 -140.5t74.5 -62t159 -15.5q109 0 284 23v-137q-80 -12 -174 -21.5t-166 -9.5 q-198 0 -282 79t-84 269zM455 852v192h182v-192h-182z" />
<glyph unicode="&#xc0;" horiz-adv-x="1214" d="M49 0l451 1409h215l450 -1409h-170l-125 385h-532l-123 -385h-166zM367 1814v11h168l161 -279v-10h-116zM379 530h448l-217 699h-10z" />
<glyph unicode="&#xc1;" horiz-adv-x="1214" d="M49 0l451 1409h215l450 -1409h-170l-125 385h-532l-123 -385h-166zM379 530h448l-217 699h-10zM514 1536v10l161 279h168v-11l-211 -278h-118z" />
<glyph unicode="&#xc2;" horiz-adv-x="1214" d="M49 0l451 1409h215l450 -1409h-170l-125 385h-532l-123 -385h-166zM336 1536v12l184 273h170l184 -273v-12h-108l-162 197l-160 -197h-108zM379 530h448l-217 699h-10z" />
<glyph unicode="&#xc3;" horiz-adv-x="1214" d="M49 0l451 1409h215l450 -1409h-170l-125 385h-532l-123 -385h-166zM275 1538q0 88 9 134t38.5 69.5t91.5 23.5q47 0 96 -12t117 -37q111 -37 160 -37q37 0 46 21.5t9 87.5h94q0 -88 -9 -134.5t-38 -70t-90 -23.5q-47 0 -92 11.5t-121 35.5q-104 39 -160 39 q-37 0 -47 -21.5t-10 -86.5h-94zM379 530h448l-217 699h-10z" />
<glyph unicode="&#xc4;" horiz-adv-x="1214" d="M49 0l451 1409h215l450 -1409h-170l-125 385h-532l-123 -385h-166zM346 1587v162h149v-162h-149zM379 530h448l-217 699h-10zM719 1587v162h147v-162h-147z" />
<glyph unicode="&#xc5;" horiz-adv-x="1214" d="M49 0l440 1384q-55 10 -80.5 34t-32.5 61t-7 102q0 84 13 125t63.5 61.5t160.5 20.5q111 0 161 -20.5t63.5 -61.5t13.5 -125q0 -66 -7.5 -102.5t-33 -59t-80.5 -33.5l442 -1386h-170l-125 385h-532l-123 -385h-166zM379 530h448l-217 699h-10zM475 1581q0 -53 7 -75.5 t34 -33t90 -10.5t91 10.5t34 33t6 75.5t-6 76.5t-33.5 34t-91.5 10.5q-63 0 -90 -10.5t-34 -34t-7 -76.5z" />
<glyph unicode="&#xc6;" horiz-adv-x="1681" d="M-12 0l590 1409h1007v-145h-762l109 -480h571v-145h-542l112 -496h512v-143h-651l-86 385h-533l-161 -385h-166zM371 530h448l-149 699h-11z" />
<glyph unicode="&#xc7;" horiz-adv-x="1005" d="M135 705q0 317 35 463.5t136.5 201.5t320.5 55q72 0 150.5 -8t127.5 -20v-135q-119 18 -239 18q-178 0 -250 -35t-94.5 -147.5t-22.5 -392.5q0 -281 22.5 -393.5t94 -147.5t250.5 -35q145 0 245 18v-137q-55 -12 -134 -19t-150 -7q-51 0 -74 2l-78 -375h-153v10l122 373 q-133 20 -198.5 90t-88 211t-22.5 410z" />
<glyph unicode="&#xc8;" horiz-adv-x="1062" d="M176 0v1409h791v-145h-627v-480h545v-145h-545v-494h627v-145h-791zM332 1814v11h168l161 -279v-10h-116z" />
<glyph unicode="&#xc9;" horiz-adv-x="1062" d="M176 0v1409h791v-145h-627v-480h545v-145h-545v-494h627v-145h-791zM508 1536v10l161 279h168v-11l-211 -278h-118z" />
<glyph unicode="&#xca;" horiz-adv-x="1062" d="M176 0v1409h791v-145h-627v-480h545v-145h-545v-494h627v-145h-791zM301 1536v12l184 273h170l184 -273v-12h-108l-162 197l-160 -197h-108z" />
<glyph unicode="&#xcb;" horiz-adv-x="1062" d="M176 0v1409h791v-145h-627v-480h545v-145h-545v-494h627v-145h-791zM318 1587v162h149v-162h-149zM691 1587v162h147v-162h-147z" />
<glyph unicode="&#xcc;" horiz-adv-x="520" d="M21 1814v11h168l161 -279v-10h-116zM178 0v1409h164v-1409h-164z" />
<glyph unicode="&#xcd;" horiz-adv-x="520" d="M177 1536v10l161 279h168v-11l-211 -278h-118zM178 0v1409h164v-1409h-164z" />
<glyph unicode="&#xce;" horiz-adv-x="520" d="M-10 1536v12l184 273h170l184 -273v-12h-108l-162 197l-160 -197h-108zM178 0v1409h164v-1409h-164z" />
<glyph unicode="&#xcf;" horiz-adv-x="520" d="M0 1585v162h149v-162h-149zM178 0v1409h164v-1409h-164zM373 1585v162h147v-162h-147z" />
<glyph unicode="&#xd0;" horiz-adv-x="1222" d="M47 645v137h129v627h393q252 0 356.5 -52t133 -188.5t28.5 -463.5q0 -328 -28.5 -464.5t-133 -188.5t-356.5 -52h-393v645h-129zM340 145h211q192 0 261 28t90.5 134.5t21.5 397.5q0 289 -21.5 396t-91.5 135t-260 28h-211v-482h215v-137h-215v-500z" />
<glyph unicode="&#xd1;" horiz-adv-x="1298" d="M176 0v1409h168l612 -1061h9v1061h159v-1409h-159l-623 1081h-8v-1081h-158zM320 1538q0 88 9 134t38.5 69.5t91.5 23.5q47 0 96 -12t117 -37q111 -37 160 -37q37 0 46 21.5t9 87.5h94q0 -88 -9 -134.5t-38 -70t-90 -23.5q-47 0 -92 11.5t-121 35.5q-104 39 -160 39 q-37 0 -47 -21.5t-10 -86.5h-94z" />
<glyph unicode="&#xd2;" horiz-adv-x="1271" d="M135 705q0 334 27.5 473t130 193t344.5 54t343 -54t129 -193.5t28 -472.5q0 -334 -28 -473.5t-129 -193.5t-343 -54t-344.5 54t-130 193.5t-27.5 473.5zM299 705q0 -297 20.5 -408t83 -139.5t234.5 -28.5t233.5 28.5t82 139.5t20.5 408t-20.5 407.5t-82 139t-233.5 28.5 t-234.5 -28.5t-83 -139.5t-20.5 -407zM375 1814v11h168l161 -279v-10h-116z" />
<glyph unicode="&#xd3;" horiz-adv-x="1271" d="M135 705q0 334 27.5 473t130 193t344.5 54t343 -54t129 -193.5t28 -472.5q0 -334 -28 -473.5t-129 -193.5t-343 -54t-344.5 54t-130 193.5t-27.5 473.5zM299 705q0 -297 20.5 -408t83 -139.5t234.5 -28.5t233.5 28.5t82 139.5t20.5 408t-20.5 407.5t-82 139t-233.5 28.5 t-234.5 -28.5t-83 -139.5t-20.5 -407zM555 1536v10l161 279h168v-11l-211 -278h-118z" />
<glyph unicode="&#xd4;" horiz-adv-x="1271" d="M135 705q0 334 27.5 473t130 193t344.5 54t343 -54t129 -193.5t28 -472.5q0 -334 -28 -473.5t-129 -193.5t-343 -54t-344.5 54t-130 193.5t-27.5 473.5zM299 705q0 -297 20.5 -408t83 -139.5t234.5 -28.5t233.5 28.5t82 139.5t20.5 408t-20.5 407.5t-82 139t-233.5 28.5 t-234.5 -28.5t-83 -139.5t-20.5 -407zM367 1536v12l184 273h170l184 -273v-12h-108l-162 197l-160 -197h-108z" />
<glyph unicode="&#xd5;" horiz-adv-x="1271" d="M135 705q0 334 27.5 473t130 193t344.5 54t343 -54t129 -193.5t28 -472.5q0 -334 -28 -473.5t-129 -193.5t-343 -54t-344.5 54t-130 193.5t-27.5 473.5zM299 705q0 -297 20.5 -408t83 -139.5t234.5 -28.5t233.5 28.5t82 139.5t20.5 408t-20.5 407.5t-82 139t-233.5 28.5 t-234.5 -28.5t-83 -139.5t-20.5 -407zM306 1538q0 88 9 134t38.5 69.5t91.5 23.5q47 0 96 -12t117 -37q111 -37 160 -37q37 0 46 21.5t9 87.5h94q0 -88 -9 -134.5t-38 -70t-90 -23.5q-47 0 -92 11.5t-121 35.5q-104 39 -160 39q-37 0 -47 -21.5t-10 -86.5h-94z" />
<glyph unicode="&#xd6;" horiz-adv-x="1271" d="M135 705q0 334 27.5 473t130 193t344.5 54t343 -54t129 -193.5t28 -472.5q0 -334 -28 -473.5t-129 -193.5t-343 -54t-344.5 54t-130 193.5t-27.5 473.5zM299 705q0 -297 20.5 -408t83 -139.5t234.5 -28.5t233.5 28.5t82 139.5t20.5 408t-20.5 407.5t-82 139t-233.5 28.5 t-234.5 -28.5t-83 -139.5t-20.5 -407zM375 1587v162h149v-162h-149zM748 1587v162h147v-162h-147z" />
<glyph unicode="&#xd7;" horiz-adv-x="937" d="M131 760l94 94l244 -244l244 244l92 -92l-244 -246l244 -244l-92 -92l-244 244l-244 -244l-92 92l244 244z" />
<glyph unicode="&#xd8;" horiz-adv-x="1269" d="M135 -113l103 195q-66 68 -84.5 202t-18.5 421q0 334 27.5 473t130 193t344.5 54q193 0 287 -30l67 127h144l-101 -193q66 -67 84.5 -201.5t18.5 -422.5q0 -334 -28 -473.5t-129 -193.5t-343 -54q-197 0 -293 32l-68 -129h-141zM299 705q0 -187 6 -288.5t23 -160.5 l526 1004q-35 12 -84 16t-133 4q-172 0 -234.5 -28.5t-83 -139.5t-20.5 -407zM414 152q35 -14 86 -18.5t137 -4.5q172 0 233.5 28.5t82 139.5t20.5 408q0 190 -6 291.5t-25 160.5z" />
<glyph unicode="&#xd9;" horiz-adv-x="1261" d="M162 614v795h164v-866q0 -190 17 -270t78.5 -112t209.5 -32q147 0 208.5 32t78 111.5t16.5 270.5v866h164v-795q0 -274 -29 -400t-125 -178t-313 -52q-215 0 -312.5 52t-127 178t-29.5 400zM396 1814v11h168l161 -279v-10h-116z" />
<glyph unicode="&#xda;" horiz-adv-x="1261" d="M162 614v795h164v-866q0 -190 17 -270t78.5 -112t209.5 -32q147 0 208.5 32t78 111.5t16.5 270.5v866h164v-795q0 -274 -29 -400t-125 -178t-313 -52q-215 0 -312.5 52t-127 178t-29.5 400zM559 1536v10l161 279h168v-11l-211 -278h-118z" />
<glyph unicode="&#xdb;" horiz-adv-x="1261" d="M162 614v795h164v-866q0 -190 17 -270t78.5 -112t209.5 -32q147 0 208.5 32t78 111.5t16.5 270.5v866h164v-795q0 -274 -29 -400t-125 -178t-313 -52q-215 0 -312.5 52t-127 178t-29.5 400zM363 1536v12l184 273h170l184 -273v-12h-108l-162 197l-160 -197h-108z" />
<glyph unicode="&#xdc;" horiz-adv-x="1261" d="M162 614v795h164v-866q0 -190 17 -270t78.5 -112t209.5 -32q147 0 208.5 32t78 111.5t16.5 270.5v866h164v-795q0 -274 -29 -400t-125 -178t-313 -52q-215 0 -312.5 52t-127 178t-29.5 400zM369 1587v162h149v-162h-149zM742 1587v162h147v-162h-147z" />
<glyph unicode="&#xdd;" horiz-adv-x="1077" d="M16 1409h174l345 -688h14l342 688h170l-440 -872v-537h-166v537zM480 1536v10l161 279h168v-11l-211 -278h-118z" />
<glyph unicode="&#xde;" horiz-adv-x="1155" d="M176 0v1409h164v-246h356q160 0 241 -55t104.5 -148.5t23.5 -242.5q0 -143 -24.5 -236.5t-104.5 -151t-240 -57.5h-356v-272h-164zM340 418h311q113 0 166 30.5t68.5 91t15.5 177.5q0 119 -14.5 179t-66.5 91t-167 31h-313v-600z" />
<glyph unicode="&#xdf;" horiz-adv-x="1101" d="M154 0v1116q0 152 39.5 243t130 134t245.5 43q154 0 241 -38t123 -113.5t36 -198.5q0 -131 -51.5 -197.5t-161.5 -87.5v-8q119 -23 174 -113t55 -284q0 -195 -28.5 -297.5t-109.5 -150.5t-245 -48h-125v133h92q125 0 175.5 20.5t67.5 91t17 244.5q0 139 -21.5 210 t-73.5 96.5t-152 25.5h-56v135h56q131 0 181 48.5t50 169.5q0 92 -22.5 140t-77 67.5t-152.5 19.5q-94 0 -147.5 -23.5t-79 -87t-25.5 -186.5v-1104h-155z" />
<glyph unicode="&#xe0;" horiz-adv-x="1024" d="M94 289q0 119 25.5 185.5t88 96t175.5 29.5q57 0 334 -10v69q0 127 -20.5 181.5t-75 70t-183.5 15.5q-57 0 -144 -6.5t-140 -14.5v127q143 29 333 29q164 0 245 -36t110.5 -120t29.5 -246v-659h-139l-8 145h-10q-37 -98 -120 -129.5t-194 -31.5q-163 0 -235 66.5 t-72 238.5zM248 299q0 -78 16.5 -115t59.5 -51t133 -14q86 0 140 17.5t81 70.5q39 80 39 215v59h-293q-76 0 -112 -13t-50 -51t-14 -118zM271 1511v11h168l161 -279v-10h-116z" />
<glyph unicode="&#xe1;" horiz-adv-x="1024" d="M94 289q0 119 25.5 185.5t88 96t175.5 29.5q57 0 334 -10v69q0 127 -20.5 181.5t-75 70t-183.5 15.5q-57 0 -144 -6.5t-140 -14.5v127q143 29 333 29q164 0 245 -36t110.5 -120t29.5 -246v-659h-139l-8 145h-10q-37 -98 -120 -129.5t-194 -31.5q-163 0 -235 66.5 t-72 238.5zM248 299q0 -78 16.5 -115t59.5 -51t133 -14q86 0 140 17.5t81 70.5q39 80 39 215v59h-293q-76 0 -112 -13t-50 -51t-14 -118zM428 1233v10l161 279h168v-11l-211 -278h-118z" />
<glyph unicode="&#xe2;" horiz-adv-x="1024" d="M94 289q0 119 25.5 185.5t88 96t175.5 29.5q57 0 334 -10v69q0 127 -20.5 181.5t-75 70t-183.5 15.5q-57 0 -144 -6.5t-140 -14.5v127q143 29 333 29q164 0 245 -36t110.5 -120t29.5 -246v-659h-139l-8 145h-10q-37 -98 -120 -129.5t-194 -31.5q-163 0 -235 66.5 t-72 238.5zM246 1237v12l184 273h170l184 -273v-12h-108l-162 197l-160 -197h-108zM248 299q0 -78 16.5 -115t59.5 -51t133 -14q86 0 140 17.5t81 70.5q39 80 39 215v59h-293q-76 0 -112 -13t-50 -51t-14 -118z" />
<glyph unicode="&#xe3;" horiz-adv-x="1024" d="M94 289q0 119 25.5 185.5t88 96t175.5 29.5q57 0 334 -10v69q0 127 -20.5 181.5t-75 70t-183.5 15.5q-57 0 -144 -6.5t-140 -14.5v127q143 29 333 29q164 0 245 -36t110.5 -120t29.5 -246v-659h-139l-8 145h-10q-37 -98 -120 -129.5t-194 -31.5q-163 0 -235 66.5 t-72 238.5zM181 1272q0 88 9 134t38.5 69.5t91.5 23.5q47 0 96 -12t117 -37q111 -37 160 -37q37 0 46 21.5t9 87.5h94q0 -88 -9 -134.5t-38 -70t-90 -23.5q-47 0 -92 11.5t-121 35.5q-104 39 -160 39q-37 0 -47 -21.5t-10 -86.5h-94zM248 299q0 -78 16.5 -115t59.5 -51 t133 -14q86 0 140 17.5t81 70.5q39 80 39 215v59h-293q-76 0 -112 -13t-50 -51t-14 -118z" />
<glyph unicode="&#xe4;" horiz-adv-x="1024" d="M94 289q0 119 25.5 185.5t88 96t175.5 29.5q57 0 334 -10v69q0 127 -20.5 181.5t-75 70t-183.5 15.5q-57 0 -144 -6.5t-140 -14.5v127q143 29 333 29q164 0 245 -36t110.5 -120t29.5 -246v-659h-139l-8 145h-10q-37 -98 -120 -129.5t-194 -31.5q-163 0 -235 66.5 t-72 238.5zM248 299q0 -78 16.5 -115t59.5 -51t133 -14q86 0 140 17.5t81 70.5q39 80 39 215v59h-293q-76 0 -112 -13t-50 -51t-14 -118zM254 1329v162h149v-162h-149zM627 1329v162h147v-162h-147z" />
<glyph unicode="&#xe5;" horiz-adv-x="1024" d="M94 289q0 119 25.5 185.5t88 96t175.5 29.5q57 0 334 -10v69q0 127 -20.5 181.5t-75 70t-183.5 15.5q-57 0 -144 -6.5t-140 -14.5v127q143 29 333 29q164 0 245 -36t110.5 -120t29.5 -246v-659h-139l-8 145h-10q-37 -98 -120 -129.5t-194 -31.5q-163 0 -235 66.5 t-72 238.5zM248 299q0 -78 16.5 -115t59.5 -51t133 -14q86 0 140 17.5t81 70.5q39 80 39 215v59h-293q-76 0 -112 -13t-50 -51t-14 -118zM275 1430q0 86 13 127t62.5 61.5t159.5 20.5q111 0 162 -20.5t64.5 -62.5t13.5 -126t-13.5 -125t-64.5 -60.5t-162 -19.5 q-110 0 -159.5 19.5t-62.5 60.5t-13 125zM379 1430q0 -53 7.5 -75.5t34 -33t89.5 -10.5q66 0 93.5 10.5t33.5 33t6 75.5q0 55 -6 77.5t-33.5 33t-93.5 10.5q-63 0 -89.5 -10.5t-34 -34t-7.5 -76.5z" />
<glyph unicode="&#xe6;" horiz-adv-x="1617" d="M94 287q0 119 25.5 185.5t87 95t176.5 28.5l184 -2q57 -2 148 -2v67q0 127 -20.5 180.5t-75 70t-183.5 16.5q-59 0 -147 -7.5t-135 -15.5v129q158 29 333 29q131 0 204 -25.5t110 -87.5q43 59 119.5 86t205.5 27q176 0 255 -50t99.5 -154.5t20.5 -330.5v-51h-629 q0 -162 17.5 -232.5t78 -98t199.5 -27.5q131 0 299 22v-127q-59 -12 -151 -20t-178 -8q-158 0 -239 34.5t-120 120.5q-51 -94 -141 -124.5t-213 -30.5q-176 0 -253 66.5t-77 236.5zM246 299q0 -78 16.5 -116t59.5 -52t133 -14t147 20.5t82 81.5q31 76 31 201v55h-293 q-76 0 -112 -12t-50 -48t-14 -116zM872 590h478v16q0 145 -19.5 212t-65.5 88.5t-143 21.5q-116 0 -166.5 -24.5t-67 -91.5t-16.5 -222z" />
<glyph unicode="&#xe7;" horiz-adv-x="831" d="M115 522q0 213 28.5 324.5t108.5 163t237 51.5q63 0 133 -8.5t117 -18.5v-129q-102 20 -213 21q-115 0 -167 -31t-69.5 -113t-17.5 -260q0 -182 18.5 -263t71 -110.5t168.5 -29.5q112 0 218 20v-129q-49 -10 -120 -18t-132 -8h-29l-78 -373h-153v10l122 373 q-106 20 -158.5 81.5t-68.5 164t-16 282.5z" />
<glyph unicode="&#xe8;" horiz-adv-x="1015" d="M115 520q0 221 24.5 328.5t111.5 160t275 52.5q176 0 254 -50t98.5 -155.5t20.5 -333.5v-53h-627q0 -160 17.5 -229.5t78 -96t199.5 -26.5q131 0 297 22v-127q-55 -12 -148 -20t-181 -8q-188 0 -276.5 48t-116 156.5t-27.5 331.5zM269 1511v11h168l161 -279v-10h-116z M272 586h478v20q0 145 -19.5 212t-66 88.5t-142.5 21.5q-116 0 -166.5 -24.5t-67 -93.5t-16.5 -224z" />
<glyph unicode="&#xe9;" horiz-adv-x="1015" d="M115 520q0 221 24.5 328.5t111.5 160t275 52.5q176 0 254 -50t98.5 -155.5t20.5 -333.5v-53h-627q0 -160 17.5 -229.5t78 -96t199.5 -26.5q131 0 297 22v-127q-55 -12 -148 -20t-181 -8q-188 0 -276.5 48t-116 156.5t-27.5 331.5zM272 586h478v20q0 145 -19.5 212 t-66 88.5t-142.5 21.5q-116 0 -166.5 -24.5t-67 -93.5t-16.5 -224zM443 1233v10l161 279h168v-11l-211 -278h-118z" />
<glyph unicode="&#xea;" horiz-adv-x="1015" d="M115 520q0 221 24.5 328.5t111.5 160t275 52.5q176 0 254 -50t98.5 -155.5t20.5 -333.5v-53h-627q0 -160 17.5 -229.5t78 -96t199.5 -26.5q131 0 297 22v-127q-55 -12 -148 -20t-181 -8q-188 0 -276.5 48t-116 156.5t-27.5 331.5zM244 1237v12l184 273h170l184 -273v-12 h-108l-162 197l-160 -197h-108zM272 586h478v20q0 145 -19.5 212t-66 88.5t-142.5 21.5q-116 0 -166.5 -24.5t-67 -93.5t-16.5 -224z" />
<glyph unicode="&#xeb;" horiz-adv-x="1015" d="M115 520q0 221 24.5 328.5t111.5 160t275 52.5q176 0 254 -50t98.5 -155.5t20.5 -333.5v-53h-627q0 -160 17.5 -229.5t78 -96t199.5 -26.5q131 0 297 22v-127q-55 -12 -148 -20t-181 -8q-188 0 -276.5 48t-116 156.5t-27.5 331.5zM256 1329v162h149v-162h-149zM272 586 h478v20q0 145 -19.5 212t-66 88.5t-142.5 21.5q-116 0 -166.5 -24.5t-67 -93.5t-16.5 -224zM629 1329v162h147v-162h-147z" />
<glyph unicode="&#xec;" horiz-adv-x="464" d="M-18 1511v11h168l161 -279v-10h-116zM154 0v1044h155v-1044h-155z" />
<glyph unicode="&#xed;" horiz-adv-x="464" d="M154 0v1044h155v-1044h-155zM154 1233v10l161 279h168v-11l-211 -278h-118z" />
<glyph unicode="&#xee;" horiz-adv-x="464" d="M-36 1237v12l184 273h170l184 -273v-12h-108l-162 197l-160 -197h-108zM154 0v1044h155v-1044h-155z" />
<glyph unicode="&#xef;" horiz-adv-x="464" d="M-27 1329v162h149v-162h-149zM154 0v1044h155v-1044h-155zM346 1329v162h147v-162h-147z" />
<glyph unicode="&#xf0;" horiz-adv-x="1050" d="M115 520q0 225 22.5 333t99 157t248.5 49q152 0 230 -53l8 4q-45 152 -115 268l-221 -35v107l158 26q-57 70 -125 137v9h170q84 -90 108 -121l195 31v-107l-131 -22q47 -82 85 -188.5t56 -221.5q27 -152 27 -338q0 -258 -21.5 -367.5t-105.5 -156.5t-281 -47 q-192 0 -276 45t-107.5 150.5t-23.5 340.5zM272 520q0 -199 11.5 -272.5t61.5 -102t177 -28.5q129 0 179.5 28.5t61.5 102.5t11 272q0 178 -12 254t-64.5 114t-175.5 38q-129 0 -178 -28t-60.5 -102.5t-11.5 -275.5z" />
<glyph unicode="&#xf1;" d="M154 0v1044h139l8 -147h10q31 80 101.5 122t203.5 42t200 -41t90.5 -125t23.5 -236v-659h-156v602q0 150 -15.5 212.5t-59.5 83t-146 20.5q-113 0 -165 -42t-65.5 -118t-13.5 -215v-543h-155zM215 1272q0 88 9 134t38.5 69.5t91.5 23.5q47 0 96 -12t117 -37 q111 -37 160 -37q37 0 46 21.5t9 87.5h94q0 -88 -9 -134.5t-38 -70t-90 -23.5q-47 0 -92 11.5t-121 35.5q-104 39 -160 39q-37 0 -47 -21.5t-10 -86.5h-94z" />
<glyph unicode="&#xf2;" horiz-adv-x="1044" d="M115 522q0 240 23.5 345.5t107.5 149.5t276 44q193 0 277 -44t107.5 -149.5t23.5 -345.5t-23.5 -345t-107.5 -149t-277 -44q-192 0 -276 44t-107.5 149.5t-23.5 344.5zM272 522q0 -201 12.5 -274.5t61.5 -101t176 -27.5t177.5 27.5t62.5 102.5t12 273q0 199 -12 273.5 t-62.5 102.5t-177.5 28t-176 -28t-61.5 -102.5t-12.5 -273.5zM277 1511v11h168l161 -279v-10h-116z" />
<glyph unicode="&#xf3;" horiz-adv-x="1044" d="M115 522q0 240 23.5 345.5t107.5 149.5t276 44q193 0 277 -44t107.5 -149.5t23.5 -345.5t-23.5 -345t-107.5 -149t-277 -44q-192 0 -276 44t-107.5 149.5t-23.5 344.5zM272 522q0 -201 12.5 -274.5t61.5 -101t176 -27.5t177.5 27.5t62.5 102.5t12 273q0 199 -12 273.5 t-62.5 102.5t-177.5 28t-176 -28t-61.5 -102.5t-12.5 -273.5zM445 1233v10l161 279h168v-11l-211 -278h-118z" />
<glyph unicode="&#xf4;" horiz-adv-x="1044" d="M115 522q0 240 23.5 345.5t107.5 149.5t276 44q193 0 277 -44t107.5 -149.5t23.5 -345.5t-23.5 -345t-107.5 -149t-277 -44q-192 0 -276 44t-107.5 149.5t-23.5 344.5zM254 1237v12l184 273h170l184 -273v-12h-108l-162 197l-160 -197h-108zM272 522q0 -201 12.5 -274.5 t61.5 -101t176 -27.5t177.5 27.5t62.5 102.5t12 273q0 199 -12 273.5t-62.5 102.5t-177.5 28t-176 -28t-61.5 -102.5t-12.5 -273.5z" />
<glyph unicode="&#xf5;" horiz-adv-x="1044" d="M115 522q0 240 23.5 345.5t107.5 149.5t276 44q193 0 277 -44t107.5 -149.5t23.5 -345.5t-23.5 -345t-107.5 -149t-277 -44q-192 0 -276 44t-107.5 149.5t-23.5 344.5zM193 1272q0 88 9 134t38.5 69.5t91.5 23.5q47 0 96 -12t117 -37q111 -37 160 -37q37 0 46 21.5 t9 87.5h94q0 -88 -9 -134.5t-38 -70t-90 -23.5q-47 0 -92 11.5t-121 35.5q-104 39 -160 39q-37 0 -47 -21.5t-10 -86.5h-94zM272 522q0 -201 12.5 -274.5t61.5 -101t176 -27.5t177.5 27.5t62.5 102.5t12 273q0 199 -12 273.5t-62.5 102.5t-177.5 28t-176 -28t-61.5 -102.5 t-12.5 -273.5z" />
<glyph unicode="&#xf6;" horiz-adv-x="1044" d="M115 522q0 240 23.5 345.5t107.5 149.5t276 44q193 0 277 -44t107.5 -149.5t23.5 -345.5t-23.5 -345t-107.5 -149t-277 -44q-192 0 -276 44t-107.5 149.5t-23.5 344.5zM264 1329v162h149v-162h-149zM272 522q0 -201 12.5 -274.5t61.5 -101t176 -27.5t177.5 27.5 t62.5 102.5t12 273q0 199 -12 273.5t-62.5 102.5t-177.5 28t-176 -28t-61.5 -102.5t-12.5 -273.5zM637 1329v162h147v-162h-147z" />
<glyph unicode="&#xf7;" horiz-adv-x="1048" d="M135 453v131h778v-131h-778zM453 76v151h143v-151h-143zM453 807v151h143v-151h-143z" />
<glyph unicode="&#xf8;" horiz-adv-x="1044" d="M115 522q0 240 23.5 345.5t107.5 149.5t276 44q129 0 209 -19l62 115h137l-90 -168q57 -53 73.5 -154.5t16.5 -312.5q0 -240 -23.5 -345t-107.5 -149t-277 -44q-129 0 -209 18l-61 -115h-135l90 168q-59 51 -75.5 153.5t-16.5 313.5zM272 522q0 -137 3.5 -200.5 t17.5 -104.5l371 696q-41 12 -142 13q-127 0 -176 -28t-61.5 -102.5t-12.5 -273.5zM381 131q41 -12 141 -12q127 0 177.5 27.5t62.5 102.5t12 273q0 137 -3 200.5t-17 104.5z" />
<glyph unicode="&#xf9;" d="M152 385v659h155v-602q0 -147 16.5 -210.5t60.5 -84t146 -20.5q113 0 164 42t64.5 116.5t13.5 216.5v542h156v-1044h-140l-6 147h-12q-31 -80 -100.5 -121.5t-202.5 -41.5t-200.5 41t-91 124.5t-23.5 235.5zM291 1511v11h168l161 -279v-10h-116z" />
<glyph unicode="&#xfa;" d="M152 385v659h155v-602q0 -147 16.5 -210.5t60.5 -84t146 -20.5q113 0 164 42t64.5 116.5t13.5 216.5v542h156v-1044h-140l-6 147h-12q-31 -80 -100.5 -121.5t-202.5 -41.5t-200.5 41t-91 124.5t-23.5 235.5zM476 1233v10l161 279h168v-11l-211 -278h-118z" />
<glyph unicode="&#xfb;" d="M152 385v659h155v-602q0 -147 16.5 -210.5t60.5 -84t146 -20.5q113 0 164 42t64.5 116.5t13.5 216.5v542h156v-1044h-140l-6 147h-12q-31 -80 -100.5 -121.5t-202.5 -41.5t-200.5 41t-91 124.5t-23.5 235.5zM271 1237v12l184 273h170l184 -273v-12h-108l-162 197 l-160 -197h-108z" />
<glyph unicode="&#xfc;" d="M152 385v659h155v-602q0 -147 16.5 -210.5t60.5 -84t146 -20.5q113 0 164 42t64.5 116.5t13.5 216.5v542h156v-1044h-140l-6 147h-12q-31 -80 -100.5 -121.5t-202.5 -41.5t-200.5 41t-91 124.5t-23.5 235.5zM279 1329v162h149v-162h-149zM652 1329v162h147v-162h-147z " />
<glyph unicode="&#xfd;" d="M152 406v638h155v-600q0 -147 16.5 -210.5t60.5 -84t146 -20.5q113 0 164 43t64.5 118t13.5 216v538h156v-909q0 -217 -30 -330.5t-119 -167t-273 -53.5q-155 1 -311 17v129q168 -10 278 -11q137 0 199.5 34t81 106.5t18.5 226.5v53h-10q-27 -70 -95.5 -109.5 t-201.5 -39.5q-135 0 -201.5 42t-89 128t-22.5 246zM476 1233v10l161 279h168v-11l-211 -278h-118z" />
<glyph unicode="&#xfe;" horiz-adv-x="1071" d="M154 -389v1911h155v-613h10q33 84 107 118t186 34q139 0 211 -46t101.5 -159t29.5 -332t-28.5 -332.5t-100 -160.5t-211.5 -47q-115 0 -187.5 33.5t-107.5 113.5h-10v-520h-155zM309 522q0 -176 19 -241q23 -86 75 -121t150 -35q115 0 163 26.5t65.5 105.5t17.5 265 t-17.5 265t-65.5 106t-163 27q-94 0 -146.5 -31t-72.5 -105q-16 -43 -20.5 -102t-4.5 -160z" />
<glyph unicode="&#xff;" d="M152 406v638h155v-600q0 -147 16.5 -210.5t60.5 -84t146 -20.5q113 0 164 43t64.5 118t13.5 216v538h156v-909q0 -217 -30 -330.5t-119 -167t-273 -53.5q-155 1 -311 17v129q168 -10 278 -11q137 0 199.5 34t81 106.5t18.5 226.5v53h-10q-27 -70 -95.5 -109.5 t-201.5 -39.5q-135 0 -201.5 42t-89 128t-22.5 246zM281 1329v162h149v-162h-149zM654 1329v162h147v-162h-147z" />
<glyph unicode="&#x152;" horiz-adv-x="1843" d="M135 705q0 326 27.5 462t130 189t344.5 53h1108v-145h-571q-72 0 -134 12q57 -61 76 -172t21 -320h526v-145h-526q-2 -221 -20.5 -333.5t-76.5 -172.5q51 10 134 10h571v-143h-1108q-242 0 -344.5 53t-130 189.5t-27.5 462.5zM299 705q0 -289 20.5 -396.5t83 -136.5 t234.5 -29q170 0 232.5 29t83 136.5t20.5 396.5t-20.5 396t-82 135t-233.5 28t-234.5 -28t-83 -135.5t-20.5 -395.5z" />
<glyph unicode="&#x153;" horiz-adv-x="1677" d="M115 522q0 240 23.5 345.5t107.5 149.5t276 44q139 0 216 -26.5t116 -94.5q41 63 119 92t213 29q176 0 254 -50t98.5 -155.5t20.5 -333.5v-53h-627q0 -160 17.5 -229.5t77.5 -96t200 -26.5q131 0 297 22v-127q-57 -12 -150.5 -20t-179.5 -8q-137 0 -217 27.5t-123 94.5 q-37 -70 -113.5 -96t-218.5 -26q-193 0 -276.5 44t-107 149.5t-23.5 344.5zM272 522q0 -201 12.5 -274.5t61.5 -101t176 -27.5t177.5 27.5t62.5 102.5t12 273q0 199 -12 273.5t-62.5 102.5t-177.5 28t-176 -28t-61.5 -102.5t-12.5 -273.5zM932 586h477v20q0 145 -19.5 212 t-65.5 88.5t-142 21.5q-117 0 -167 -24.5t-66.5 -93.5t-16.5 -224z" />
<glyph unicode="&#x178;" horiz-adv-x="1077" d="M16 1409h174l345 -688h14l342 688h170l-440 -872v-537h-166v537zM285 1587v162h149v-162h-149zM658 1587v162h147v-162h-147z" />
<glyph unicode="&#x2c6;" horiz-adv-x="591" d="M27 1237v12l184 273h170l184 -273v-12h-108l-162 197l-160 -197h-108z" />
<glyph unicode="&#x2dc;" horiz-adv-x="716" d="M27 1272q0 88 9 134t38.5 69.5t91.5 23.5q47 0 96 -12t117 -37q111 -37 160 -37q37 0 46 21.5t9 87.5h94q0 -88 -9 -134.5t-38 -70t-90 -23.5q-47 0 -92 11.5t-121 35.5q-104 39 -160 39q-37 0 -47 -21.5t-10 -86.5h-94z" />
<glyph unicode="&#x2000;" horiz-adv-x="912" />
<glyph unicode="&#x2001;" horiz-adv-x="1825" />
<glyph unicode="&#x2002;" horiz-adv-x="912" />
<glyph unicode="&#x2003;" horiz-adv-x="1825" />
<glyph unicode="&#x2004;" horiz-adv-x="608" />
<glyph unicode="&#x2005;" horiz-adv-x="456" />
<glyph unicode="&#x2006;" horiz-adv-x="304" />
<glyph unicode="&#x2007;" horiz-adv-x="304" />
<glyph unicode="&#x2008;" horiz-adv-x="228" />
<glyph unicode="&#x2009;" horiz-adv-x="365" />
<glyph unicode="&#x200a;" horiz-adv-x="101" />
<glyph unicode="&#x2010;" horiz-adv-x="684" d="M119 512v145h446v-145h-446z" />
<glyph unicode="&#x2011;" horiz-adv-x="684" d="M119 512v145h446v-145h-446z" />
<glyph unicode="&#x2012;" horiz-adv-x="684" d="M119 512v145h446v-145h-446z" />
<glyph unicode="&#x2013;" horiz-adv-x="925" d="M115 555v133h698v-133h-698z" />
<glyph unicode="&#x2014;" horiz-adv-x="1736" d="M115 555v133h1509v-133h-1509z" />
<glyph unicode="&#x2018;" horiz-adv-x="407" d="M113 983v162q0 111 15 165t60 76.5t140 22.5v-74q-68 0 -88.5 -25.5t-20.5 -105.5v-35h70v-186h-176z" />
<glyph unicode="&#x2019;" horiz-adv-x="407" d="M78 983v74q69 0 89.5 25.5t20.5 105.5v35h-71v186h176v-162q0 -113 -15.5 -166t-60.5 -75.5t-139 -22.5z" />
<glyph unicode="&#x201a;" horiz-adv-x="419" d="M82 -166q70 0 90.5 25.5t20.5 105.5v35h-72v186h176v-161q0 -113 -15.5 -166.5t-60.5 -76t-139 -22.5v74z" />
<glyph unicode="&#x201c;" horiz-adv-x="716" d="M113 983v162q0 111 15 165t60 76.5t140 22.5v-74q-68 0 -88.5 -25.5t-20.5 -105.5v-35h70v-186h-176zM422 983v162q0 111 15.5 165t60.5 76.5t139 22.5v-74q-70 0 -90.5 -25.5t-20.5 -105.5v-35h72v-186h-176z" />
<glyph unicode="&#x201d;" horiz-adv-x="716" d="M78 983v74q69 0 89.5 25.5t20.5 105.5v35h-71v186h176v-162q0 -113 -15.5 -166t-60.5 -75.5t-139 -22.5zM387 983v74q70 0 90.5 25.5t20.5 105.5v35h-72v186h176v-162q0 -111 -15.5 -165t-60.5 -76.5t-139 -22.5z" />
<glyph unicode="&#x201e;" horiz-adv-x="729" d="M82 -166q70 0 90.5 25.5t20.5 105.5v35h-72v186h176v-161q0 -113 -15.5 -166.5t-60.5 -76t-139 -22.5v74zM391 -166q70 0 90.5 25.5t20.5 105.5v35h-72v186h176v-161q0 -111 -15.5 -165.5t-60.5 -77t-139 -22.5v74z" />
<glyph unicode="&#x2022;" horiz-adv-x="679" d="M135 700q0 100 11.5 140.5t51.5 55.5t140 15q102 0 144 -15t53.5 -55t11.5 -141q0 -98 -11.5 -137t-53.5 -53t-144 -14q-100 0 -140 14t-51.5 53t-11.5 137z" />
<glyph unicode="&#x2026;" horiz-adv-x="1275" d="M123 0v193h180v-193h-180zM547 0v193h182v-193h-182zM973 0v193h182v-193h-182z" />
<glyph unicode="&#x202f;" horiz-adv-x="365" />
<glyph unicode="&#x2039;" horiz-adv-x="557" d="M82 627l233 417h115l-199 -417l199 -416h-115z" />
<glyph unicode="&#x203a;" horiz-adv-x="557" d="M125 211l201 416l-201 417h115l233 -417l-233 -416h-115z" />
<glyph unicode="&#x205f;" horiz-adv-x="456" />
<glyph unicode="&#x20ac;" horiz-adv-x="1097" d="M72 498v106h151v207h-151v107h155q10 211 54.5 318t142.5 148t289 41q80 0 156.5 -9t119.5 -19v-135q-43 6 -112.5 12t-124.5 6q-152 0 -222.5 -23.5t-100.5 -97.5t-38 -241h508v-107h-510v-207h510v-106h-508q8 -170 38 -246t99.5 -99.5t223.5 -23.5q68 0 136 6t107 12 v-139q-43 -8 -123.5 -16t-158.5 -8q-195 0 -292 38.5t-140 146t-54 329.5h-155z" />
<glyph unicode="&#x2122;" horiz-adv-x="1337" d="M84 1329v80h426v-80h-170v-541h-88v541h-168zM606 788v621h117l172 -481h8l170 481h115v-621h-84v476h-8l-166 -476h-68l-166 476h-8v-476h-82z" />
<glyph unicode="&#x25fc;" horiz-adv-x="1044" d="M0 0v1044h1044v-1044h-1044z" />
</font>
</defs>
</svg>
